<?xml version="1.0" standalone="no"?>
<!DOCTYPE svg PUBLIC "-//W3C//DTD SVG 20010904//EN"
 "http://www.w3.org/TR/2001/REC-SVG-20010904/DTD/svg10.dtd">
<svg version="1.0" xmlns="http://www.w3.org/2000/svg"
 width="597.000000pt" height="242.000000pt" viewBox="0 0 597.000000 242.000000"
 preserveAspectRatio="xMidYMid meet">

<g transform="translate(0.000000,242.000000) scale(0.100000,-0.100000)"
fill="#000000" stroke="none">
<path d="M0 1210 l0 -1210 2985 0 2985 0 0 1210 0 1210 -2985 0 -2985 0 0
-1210z m2268 951 c34 -5 68 -13 75 -19 6 -5 35 -22 62 -38 28 -15 63 -35 79
-44 16 -8 33 -22 36 -30 14 -29 30 -87 30 -109 0 -13 7 -47 15 -76 22 -73 31
-70 148 52 15 15 27 34 27 41 0 15 59 72 75 72 6 0 42 -31 80 -70 38 -38 76
-70 83 -70 17 0 81 -70 82 -89 0 -8 -7 -19 -16 -26 -14 -9 -14 -16 -5 -33 6
-12 16 -22 21 -22 6 0 10 -6 10 -14 0 -8 4 -16 9 -18 14 -5 61 -86 61 -105 0
-10 16 -28 35 -41 l36 -23 62 44 c140 99 401 205 515 209 27 1 42 -7 74 -39
25 -25 40 -50 40 -64 0 -14 -50 -100 -116 -198 -64 -96 -116 -178 -116 -183 0
-11 2 -11 76 13 36 12 68 19 70 16 9 -8 -22 -60 -53 -90 -23 -22 -44 -29 -96
-35 -37 -5 -68 -10 -71 -13 -21 -23 -117 -189 -167 -290 -15 -30 -25 -37 -69
-47 -67 -16 -80 -15 -80 3 0 18 130 267 151 290 24 24 9 34 -46 28 -50 -5 -55
-4 -55 14 0 30 30 51 80 58 25 4 55 8 67 11 13 2 44 36 79 87 62 87 176 236
231 301 37 44 44 73 16 61 -10 -4 -27 -9 -38 -12 -11 -3 -29 -8 -40 -13 -11
-4 -40 -15 -65 -25 -59 -23 -213 -100 -259 -130 -75 -49 -94 -70 -86 -94 5
-18 13 -22 31 -18 29 5 44 -16 44 -62 0 -38 -6 -41 -88 -48 l-68 -6 -37 39
c-46 48 -65 90 -48 107 6 6 11 17 11 25 0 25 -40 71 -78 89 -20 9 -44 24 -52
34 -8 9 -32 35 -52 59 -33 36 -40 41 -54 29 -13 -11 -22 -6 -61 37 -52 55 -78
59 -122 18 -14 -13 -29 -24 -33 -24 -16 0 -7 -30 14 -44 20 -14 21 -22 19
-142 -1 -70 -6 -135 -12 -145 -5 -10 -9 -31 -9 -47 0 -16 -7 -49 -15 -72 -8
-23 -15 -58 -15 -76 0 -19 -5 -34 -11 -34 -30 0 1 -36 255 -297 67 -70 69 -73
56 -98 -13 -24 -12 -28 13 -51 15 -14 27 -27 27 -30 0 -14 -54 -74 -66 -74 -8
0 -14 -7 -14 -16 0 -9 -12 -28 -26 -41 l-26 -24 -22 20 c-23 22 -66 29 -66 11
0 -19 -25 -10 -54 21 -16 16 -34 28 -41 25 -7 -2 -22 4 -34 15 -16 16 -20 28
-16 52 5 30 1 35 -61 80 -36 26 -69 45 -74 42 -5 -3 -33 -40 -63 -83 -58 -83
-162 -193 -242 -257 -27 -22 -61 -50 -75 -62 -36 -33 -88 -56 -114 -49 -12 3
-35 17 -50 31 -15 14 -30 25 -35 25 -4 0 -16 8 -27 18 -10 10 -37 31 -59 47
-82 62 -245 244 -245 274 0 6 -4 11 -10 11 -5 0 -10 6 -10 14 0 7 -6 18 -13
24 -9 8 -22 2 -49 -24 -20 -19 -45 -34 -55 -34 -28 0 -46 -35 -31 -60 11 -16
8 -22 -17 -44 -17 -14 -37 -24 -45 -21 -9 3 -23 -7 -35 -25 -19 -28 -55 -41
-55 -20 0 6 -11 10 -25 10 -14 0 -25 -3 -25 -8 0 -4 -9 -13 -20 -19 -16 -11
-23 -9 -45 11 -14 13 -25 28 -25 35 0 6 -11 16 -24 22 -13 6 -27 19 -30 28 -3
9 -11 24 -18 34 -11 15 -9 21 17 41 26 22 29 27 18 45 -18 29 -17 37 15 73 43
50 145 154 162 164 8 5 44 40 79 76 58 61 64 70 54 90 -31 65 -53 201 -60 367
-4 126 -4 134 16 148 28 19 26 30 -11 61 -42 36 -85 45 -101 22 -7 -9 -25 -32
-40 -50 -25 -29 -31 -32 -48 -22 -16 11 -24 7 -56 -29 -21 -23 -42 -48 -46
-55 -4 -8 -26 -22 -49 -33 -26 -11 -60 -42 -92 -82 -28 -35 -71 -78 -96 -97
-25 -19 -58 -45 -74 -58 -30 -24 -66 -32 -66 -15 0 24 146 185 218 240 23 18
42 41 42 52 0 10 5 19 10 19 6 0 10 8 10 18 0 11 9 27 19 36 11 10 32 35 47
57 26 38 26 40 9 59 -16 18 -16 20 6 52 32 45 45 58 61 58 7 0 45 32 83 70 38
39 75 70 82 70 17 0 73 -54 73 -70 0 -15 119 -134 142 -143 21 -7 29 20 65
214 3 18 20 35 56 56 127 75 150 85 229 93 44 4 82 11 86 15 9 9 233 -1 320
-14z m1962 -852 c0 -12 40 -48 55 -49 6 0 23 -12 40 -25 l29 -24 -19 -58 c-10
-32 -22 -62 -27 -68 -13 -14 -9 -35 5 -35 19 0 167 127 167 143 0 7 -9 18 -20
25 -11 7 -20 19 -20 27 0 15 48 95 57 95 14 0 43 -23 43 -34 0 -8 24 -29 53
-47 72 -46 74 -50 48 -114 -37 -90 -38 -95 -17 -95 29 0 116 95 134 147 10 28
25 61 33 74 l16 23 42 -18 c22 -11 41 -25 41 -32 0 -7 -11 -34 -24 -61 -33
-66 -43 -105 -24 -98 19 8 79 88 114 153 15 28 34 52 41 52 8 0 25 -11 39 -25
25 -25 26 -39 4 -90 -24 -55 -38 -115 -29 -121 5 -3 34 12 63 34 48 36 55 48
76 112 13 40 29 74 36 77 26 10 75 -21 81 -50 l6 -28 41 40 c24 24 51 41 64
41 32 0 72 -29 72 -51 0 -27 12 -24 50 16 19 19 42 35 52 35 23 0 64 -26 72
-46 6 -15 -14 -84 -41 -142 -28 -59 5 -53 82 13 45 40 55 43 55 17 0 -18 -63
-78 -133 -125 -42 -28 -74 -30 -104 -5 -16 13 -17 51 -3 96 6 17 14 45 19 62
6 19 6 30 0 30 -13 0 -105 -142 -113 -174 -8 -32 -40 -34 -75 -7 -24 18 -24
21 -12 62 7 24 17 54 22 67 5 13 9 31 9 40 0 22 -47 -32 -75 -85 -41 -80 -66
-113 -83 -113 -20 0 -72 49 -72 68 0 17 -14 15 -33 -6 -9 -10 -37 -28 -62 -41
-35 -17 -49 -20 -64 -11 -27 14 -44 46 -36 70 10 30 -2 25 -63 -30 -31 -28
-61 -50 -68 -50 -19 0 -62 39 -66 60 -3 19 -6 18 -53 -13 -67 -46 -91 -52
-120 -33 -35 23 -38 48 -15 112 29 83 13 87 -59 18 -70 -67 -177 -144 -201
-144 -55 0 -75 61 -44 135 28 69 9 73 -55 12 -123 -118 -254 -177 -319 -143
-82 42 -82 148 -1 241 32 36 69 58 128 75 57 16 111 -24 111 -84 0 -29 -43
-68 -125 -110 -44 -23 -55 -34 -53 -50 8 -54 117 -11 217 85 l65 62 -29 23
-30 23 19 33 c33 57 46 69 67 57 11 -5 19 -14 19 -20z"/>
<path d="M1851 2119 c-62 -11 -208 -84 -226 -114 -7 -11 -20 -67 -31 -125 -10
-58 -24 -116 -31 -130 -15 -30 -17 -235 -3 -295 10 -39 54 -241 71 -320 42
-206 60 -261 107 -330 26 -38 73 -100 105 -137 l58 -68 154 0 153 0 46 51 c55
61 151 195 164 230 6 13 15 51 22 84 7 33 18 78 26 100 8 23 14 51 14 64 0 13
4 40 10 60 50 183 71 312 71 417 0 61 -5 124 -12 140 -13 35 -49 200 -49 230
0 11 -8 28 -17 36 -39 35 -172 97 -227 107 -70 13 -327 13 -405 0z m376 -52
c61 -10 83 -20 139 -60 54 -39 65 -52 61 -70 -39 -181 -55 -269 -51 -279 3 -7
26 -26 52 -43 l47 -30 3 -65 c3 -63 2 -66 -33 -100 -33 -32 -47 -70 -25 -70 6
0 10 -8 10 -17 0 -10 7 -27 15 -37 20 -27 19 -34 -7 -38 -31 -4 -36 -38 -8
-45 21 -6 22 -10 16 -61 -8 -65 -11 -70 -42 -82 -16 -7 -24 -17 -24 -34 0 -14
-4 -35 -9 -48 -5 -13 -14 -45 -20 -71 -14 -58 -48 -107 -74 -107 -15 0 -18 5
-14 23 3 12 11 52 18 90 13 69 23 83 34 46 9 -29 25 -6 25 36 0 17 5 36 12 43
14 14 7 17 -85 32 -37 6 -72 8 -77 5 -6 -4 -10 -80 -10 -182 0 -161 -2 -179
-21 -209 -27 -44 -47 -54 -107 -54 -51 0 -72 12 -105 60 -14 21 -17 52 -17
209 l0 184 -42 -7 c-24 -4 -62 -10 -85 -13 l-42 -6 5 -46 c9 -71 13 -80 28
-52 8 15 16 20 20 13 10 -17 35 -155 30 -164 -10 -16 -35 -7 -46 17 -6 14 -14
25 -18 25 -7 0 -17 33 -43 145 -11 47 -18 61 -35 63 -24 4 -28 12 -37 84 -6
51 -5 56 14 61 32 8 28 47 -4 47 -14 0 -25 3 -25 6 0 3 11 25 25 50 14 25 25
50 25 57 0 7 -16 29 -35 47 -35 34 -36 37 -33 100 l3 65 53 34 c50 32 54 37
49 65 -5 26 -16 80 -53 248 -6 24 1 32 62 77 50 37 79 51 104 52 19 0 46 5 60
9 38 12 235 10 317 -3z"/>
<path d="M1915 2038 c-91 -10 -104 -18 -88 -50 10 -20 26 -69 52 -163 23 -82
35 -116 45 -124 6 -5 32 -12 59 -16 l47 -7 -2 183 c-3 155 -5 184 -18 185 -8
1 -51 -3 -95 -8z"/>
<path d="M2087 2043 c-4 -3 -7 -87 -7 -186 l0 -179 48 7 c26 3 52 12 59 18 11
11 23 49 53 162 4 17 16 56 27 87 11 32 17 61 14 67 -3 5 -33 12 -66 15 -33 4
-74 9 -91 12 -17 2 -33 1 -37 -3z"/>
<path d="M1746 1963 c-23 -24 -24 -30 -12 -48 7 -11 34 -52 60 -92 43 -67 66
-94 66 -77 0 3 -9 34 -20 68 -11 33 -27 87 -36 119 -8 31 -19 57 -24 57 -5 0
-21 -12 -34 -27z"/>
<path d="M2316 1978 c-2 -7 -10 -35 -16 -63 -7 -27 -21 -77 -31 -109 -22 -69
-22 -69 -8 -61 16 11 119 174 119 190 0 35 -56 72 -64 43z"/>
<path d="M1910 1639 c0 -15 82 -50 130 -56 35 -4 59 0 98 17 63 27 92 55 46
45 -16 -4 -51 -14 -78 -22 -41 -13 -55 -13 -90 -3 -71 22 -106 28 -106 19z"/>
<path d="M1734 1541 c-2 -2 -4 -78 -4 -168 l0 -163 325 0 325 0 1 43 c1 130
-1 281 -6 285 -6 6 -635 9 -641 3z"/>
<path d="M1652 1523 c2 -10 13 -19 26 -21 17 -3 22 2 22 17 0 16 -6 21 -26 21
-19 0 -25 -5 -22 -17z"/>
<path d="M2410 1519 c0 -15 5 -20 22 -17 34 5 37 38 4 38 -20 0 -26 -5 -26
-21z"/>
<path d="M1704 1161 c-17 -17 51 -21 352 -21 268 0 344 3 344 13 0 9 -76 12
-346 12 -190 0 -347 -2 -350 -4z"/>
<path d="M1210 1910 c-41 -39 -87 -82 -102 -96 -15 -14 -24 -32 -21 -40 8 -22
22 -17 16 6 -9 33 23 24 53 -15 31 -41 26 -55 -10 -31 -14 9 -27 16 -30 16
-10 0 -15 -34 -6 -45 12 -15 -46 -93 -70 -95 -41 -2 -67 -54 -33 -67 12 -5 36
14 88 70 58 63 74 75 93 70 27 -7 58 22 64 58 2 18 8 23 23 21 11 -2 31 -5 45
-6 35 -5 31 -3 70 -36 19 -16 41 -30 48 -30 20 0 13 27 -12 43 -31 21 -56 46
-56 58 0 11 47 12 52 1 4 -10 73 -62 81 -62 4 0 7 11 7 25 0 14 -4 25 -10 25
-21 0 -149 124 -150 145 -1 16 -37 55 -52 55 -7 0 -47 -32 -88 -70z m130 -48
c36 -29 0 -78 -48 -65 -26 6 -27 14 -7 53 18 35 25 36 55 12z"/>
<path d="M2786 1959 c-14 -11 -26 -26 -26 -33 0 -19 -87 -113 -127 -137 -30
-19 -46 -59 -24 -59 9 0 70 46 81 61 3 4 14 9 25 11 36 6 28 -27 -15 -57 -42
-29 -50 -49 -25 -59 8 -3 15 -2 15 2 0 17 84 72 102 66 11 -3 25 0 33 6 18 15
35 5 35 -22 0 -29 48 -72 65 -58 18 15 36 4 72 -45 40 -54 100 -102 113 -89
17 17 -1 55 -29 61 -34 7 -95 81 -81 98 13 16 2 45 -16 45 -8 0 -14 -4 -14 -9
0 -5 -9 -11 -20 -14 -26 -7 -25 -1 6 40 28 37 60 45 51 13 -6 -23 -2 -25 16
-8 10 9 7 17 -12 40 -14 15 -30 28 -36 28 -5 0 -42 31 -80 70 -39 38 -73 70
-76 70 -4 0 -18 -9 -33 -21z m43 -110 c15 -43 14 -46 -11 -52 -47 -13 -80 31
-48 63 28 28 46 25 59 -11z"/>
<path d="M1436 1649 l-46 -41 0 -87 c0 -81 7 -135 31 -256 22 -113 27 -133 49
-195 30 -86 158 -350 170 -350 6 0 10 -6 10 -12 0 -7 15 -31 33 -52 36 -45
180 -191 217 -221 71 -57 133 -95 156 -95 29 0 102 49 208 140 104 89 215 235
285 376 28 56 51 107 51 113 0 17 6 14 49 -26 56 -53 69 -63 81 -63 16 0 12 8
-22 46 -18 20 -37 42 -41 50 -4 8 -17 14 -27 14 -12 0 -20 7 -20 16 0 23 31
113 41 120 5 3 9 24 9 48 0 23 4 46 9 52 5 5 11 29 14 54 3 25 10 77 16 117 5
39 11 102 12 138 2 66 2 67 -42 111 -46 45 -66 53 -75 30 -7 -18 12 -53 43
-80 l25 -21 -12 -105 c-12 -109 -33 -230 -52 -290 -45 -145 -106 -285 -155
-358 -13 -18 -23 -35 -23 -38 0 -23 -174 -212 -245 -266 -16 -12 -38 -30 -48
-39 -10 -9 -33 -24 -51 -34 -32 -17 -33 -17 -77 10 -64 40 -177 141 -234 209
-28 32 -55 63 -61 70 -35 37 -122 197 -164 301 -42 104 -84 277 -94 390 -4 39
-9 87 -12 107 -5 32 -1 41 30 74 36 38 48 84 22 84 -8 0 -35 -19 -60 -41z"/>
<path d="M821 1393 c-40 -47 -49 -63 -33 -63 14 0 102 82 102 96 0 27 -28 13
-69 -33z"/>
<path d="M3227 1423 c7 -18 63 -72 76 -73 16 0 5 23 -28 55 -37 37 -58 45 -48
18z"/>
<path d="M1303 922 c-67 -70 -132 -137 -144 -149 -21 -20 -21 -25 -9 -48 12
-23 11 -28 -13 -53 -35 -37 -34 -46 8 -66 19 -9 35 -23 35 -30 0 -8 8 -24 18
-36 l17 -21 24 25 c29 31 47 33 56 6 3 -11 10 -20 14 -20 11 0 37 31 45 54 4
13 12 17 30 12 15 -4 28 -1 33 6 11 18 4 60 -13 79 -17 19 -18 51 -2 67 17 17
53 15 68 -3 18 -22 33 -19 64 14 l28 29 -33 67 c-17 36 -36 68 -41 71 -5 4
-22 -5 -36 -18 -53 -49 -119 -89 -155 -95 -22 -3 -37 -2 -37 4 0 13 33 43 47
43 6 0 35 28 64 63 30 34 57 64 60 67 13 11 28 48 22 54 -15 14 -34 -1 -150
-122z m-10 -243 c19 -27 11 -54 -20 -68 -21 -10 -29 -9 -44 5 -21 19 -24 37
-9 65 14 25 55 24 73 -2z"/>
<path d="M2660 1036 c0 -18 117 -166 138 -173 25 -9 52 -34 52 -49 0 -23 -81
9 -146 56 -32 24 -60 47 -62 52 -8 18 -22 5 -45 -39 -13 -27 -30 -58 -38 -70
-12 -20 -11 -25 16 -53 31 -33 59 -39 69 -15 3 9 18 15 34 15 21 0 32 -7 41
-26 11 -26 5 -45 -22 -65 -5 -3 -7 -21 -5 -40 3 -32 5 -34 36 -31 26 3 32 0
32 -15 0 -10 9 -26 20 -36 19 -16 20 -15 30 3 14 25 31 25 58 0 29 -27 41 -25
53 8 5 15 25 36 44 46 42 23 43 29 10 62 -28 28 -30 36 -13 64 11 17 1 31 -99
132 -61 62 -127 130 -147 151 -37 39 -56 47 -56 23z m228 -348 c18 -18 14 -53
-8 -73 -17 -16 -24 -16 -44 -5 -31 16 -38 43 -19 69 16 23 52 28 71 9z"/>
<path d="M1417 943 c-20 -25 -35 -48 -33 -50 12 -13 106 61 106 84 0 28 -37
11 -73 -34z"/>
<path d="M3946 1197 c-30 -39 -33 -60 -9 -55 17 3 63 62 63 79 0 21 -31 6 -54
-24z"/>
</g>
</svg>
