<svg id="katman_1" data-name="katman 1" xmlns="http://www.w3.org/2000/svg" viewBox="0 0 301.78 84"><defs><style>.cls-1,.cls-3{fill:#fff;}.cls-1{stroke:#fff;stroke-miterlimit:10;stroke-width:0.25px;}.cls-2{fill:#c72b26;}</style></defs><polygon class="cls-1" points="62.57 59.52 70.52 64.11 36.31 83.86 1.83 63.95 9.78 59.36 36.31 74.68 62.57 59.52"/><polygon class="cls-2" points="72.62 20.96 72.62 59.19 64.68 54.61 64.68 25.55 36.31 9.18 7.95 25.55 7.95 54.29 0 58.88 0 20.96 36.31 0 72.62 20.96"/><polygon class="cls-2" points="50.45 33.77 50.45 50.09 50.42 50.11 36.31 58.25 22.18 50.09 22.18 33.77 36.31 25.6 36.42 25.66 43.52 29.77 50.45 33.77"/><path class="cls-1" d="M-602.35,253.23l3.41,1.79a18.79,18.79,0,0,1-3.87,5.31,15.33,15.33,0,0,1-4.94,3.07,17.28,17.28,0,0,1-6.21,1.05q-7.68,0-12-5A17,17,0,0,1-630.31,248a16.83,16.83,0,0,1,3.67-10.65,15,15,0,0,1,12.45-5.94,15.49,15.49,0,0,1,12.82,6.08,17,17,0,0,1,3.47,10.74h-28.25a12.8,12.8,0,0,0,3.49,9,11.14,11.14,0,0,0,8.35,3.5,13.56,13.56,0,0,0,4.67-.83,12.39,12.39,0,0,0,3.86-2.21A19.08,19.08,0,0,0-602.35,253.23Zm0-8.45a13.41,13.41,0,0,0-2.35-5.17,11,11,0,0,0-4.09-3.11,12.5,12.5,0,0,0-5.34-1.19,11.52,11.52,0,0,0-8,3,13.47,13.47,0,0,0-3.67,6.5Z" transform="translate(751.28 -200.37)"/><path class="cls-3" d="M-593.7,232.25h4.13v4.59a14.43,14.43,0,0,1,3.89-4.05,7.65,7.65,0,0,1,4.27-1.34,7.37,7.37,0,0,1,3.58,1.06l-2.1,3.41a5.57,5.57,0,0,0-2.14-.55A5.8,5.8,0,0,0-586,237a10.47,10.47,0,0,0-2.86,5.15q-.75,2.69-.75,10.85v10.62h-4.13Z" transform="translate(751.28 -200.37)"/><path class="cls-3" d="M-567,232.25h4.15l9.62,22.8,10-22.8h.73l10.09,22.8,9.8-22.8h4.21L-532,263.65h-.75l-10-22.48-10,22.48h-.75Z" transform="translate(751.28 -200.37)"/><path class="cls-3" d="M-490.41,253.23-487,255a18.79,18.79,0,0,1-3.87,5.31,15.23,15.23,0,0,1-4.94,3.07,17.28,17.28,0,0,1-6.21,1.05q-7.68,0-12-5A17,17,0,0,1-518.36,248a16.83,16.83,0,0,1,3.66-10.65,15,15,0,0,1,12.45-5.94,15.49,15.49,0,0,1,12.82,6.08A17,17,0,0,1-486,248.27h-28.25a12.76,12.76,0,0,0,3.5,9,11.1,11.1,0,0,0,8.34,3.5,13.56,13.56,0,0,0,4.67-.83,12.39,12.39,0,0,0,3.86-2.21A18.81,18.81,0,0,0-490.41,253.23Zm0-8.45a13.26,13.26,0,0,0-2.35-5.17,11,11,0,0,0-4.09-3.11,12.47,12.47,0,0,0-5.34-1.19,11.54,11.54,0,0,0-7.95,3,13.55,13.55,0,0,0-3.67,6.5Z" transform="translate(751.28 -200.37)"/><path class="cls-3" d="M-465.65,260.55H-466a11.83,11.83,0,0,1-8.82-3.67,12.51,12.51,0,0,1-3.59-9.11,13,13,0,0,1,1.6-6.44,11.76,11.76,0,0,1,4.58-4.54,12.5,12.5,0,0,1,6.29-1.69,11.78,11.78,0,0,1,6.11,1.69,12.35,12.35,0,0,1,4.57,4.72,12.86,12.86,0,0,1,1.7,6.37c0,.12,0,.23,0,.35h4.1V248a16.18,16.18,0,0,0-4.71-11.73,15.3,15.3,0,0,0-11.37-4.83,15.38,15.38,0,0,0-6.89,1.54,17.06,17.06,0,0,0-5.68,4.66V220.14h-4v43.51h4v-5.77a16.28,16.28,0,0,0,5.51,4.93,14.57,14.57,0,0,0,6.94,1.64h.06Z" transform="translate(751.28 -200.37)"/><polygon class="cls-1" points="112.14 44.43 108.13 53.63 94.06 20.84 89.44 20.84 107.65 63.28 108.57 63.28 116.77 44.43 112.14 44.43"/><polygon class="cls-3" points="116.77 44.43 127.04 20.84 122.42 20.84 112.14 44.43 116.77 44.43"/><path class="cls-3" d="M-453.61,248a12.8,12.8,0,0,1-1.68,6.29,12.15,12.15,0,0,1-4.53,4.66,12.17,12.17,0,0,1-6.17,1.66v3.89h.28a15.51,15.51,0,0,0,11.45-4.81A16,16,0,0,0-449.51,248V248Z" transform="translate(751.28 -200.37)"/><polygon class="cls-2" points="180.55 40.52 180.55 31.89 176.51 31.89 176.51 42.07 180.55 40.52"/><polygon class="cls-3" points="176.51 45.23 176.51 63.28 180.55 63.28 180.55 43.68 176.51 45.23"/></svg>